<?xml version="1.0" standalone="no"?><!DOCTYPE svg PUBLIC "-//W3C//DTD SVG 1.1//EN" "http://www.w3.org/Graphics/SVG/1.1/DTD/svg11.dtd"><svg t="1778687357275" class="icon" viewBox="0 0 1024 1024" version="1.1" xmlns="http://www.w3.org/2000/svg" p-id="5714" width="200" height="200"><path d="M512.12416 233.088c188.501333 0 341.333333 159.061333 341.333333 337.066667 0 178.005333-152.832 260.266667-341.333333 260.266666s-341.333333-82.261333-341.333333-260.266666 152.832-337.066667 341.333333-337.066667z m4.266667 93.696c-141.397333 0-256 102.272-256 216.704s114.602667 167.296 256 167.296 256-52.906667 256-167.296c0-114.432-114.602667-216.704-256-216.704z" p-id="5715" fill="#8a8a8a"></path><path d="M597.457493 804.138667l-178.688 142.933333a21.333333 21.333333 0 0 1-34.645333-16.64v-126.293333h213.333333z" p-id="5716" fill="#8a8a8a"></path><path d="M341.457493 469.333333m42.666667 0l0 0q42.666667 0 42.666667 42.666667l0 42.666667q0 42.666667-42.666667 42.666666l0 0q-42.666667 0-42.666667-42.666666l0-42.666667q0-42.666667 42.666667-42.666667Z" p-id="5717" fill="#8a8a8a"></path><path d="M597.457493 469.333333m42.666667 0l0 0q42.666667 0 42.666667 42.666667l0 42.666667q0 42.666667-42.666667 42.666666l0 0q-42.666667 0-42.666667-42.666666l0-42.666667q0-42.666667 42.666667-42.666667Z" p-id="5718" fill="#8a8a8a"></path><path d="M120.614827 682.453333A128 128 0 0 1 128.12416 426.666667v256z" p-id="5719" fill="#8a8a8a"></path><path d="M903.633493 682.453333A128 128 0 0 0 896.12416 426.666667v256z" p-id="5720" fill="#8a8a8a"></path><path d="M938.790827 554.666667c0-235.648-191.018667-426.666667-426.666667-426.666667S85.457493 319.018667 85.457493 554.666667h42.666667C213.457493 85.333333 810.790827 85.333333 896.12416 554.666667h42.666667" p-id="5721" fill="#8a8a8a"></path></svg>