<?xml version="1.0" standalone="no"?><!DOCTYPE svg PUBLIC "-//W3C//DTD SVG 1.1//EN" "http://www.w3.org/Graphics/SVG/1.1/DTD/svg11.dtd"><svg t="1778430704484" class="icon" viewBox="0 0 1024 1024" version="1.1" xmlns="http://www.w3.org/2000/svg" p-id="3018" xmlns:xlink="http://www.w3.org/1999/xlink" width="200" height="200"><path d="M486.283636 101.236364a41.192727 41.192727 0 0 1 51.549091 0l397.963637 318.370909a41.192727 41.192727 0 0 1-25.832728 73.425454H114.036364a41.192727 41.192727 0 0 1-25.716364-73.425454z" fill="#2C9EF2" p-id="3019"></path><path d="M429.498182 946.734545H223.301818a41.192727 41.192727 0 0 1-41.192727-41.192727V493.032727a41.192727 41.192727 0 0 1 41.192727-41.192727h577.396364a41.192727 41.192727 0 0 1 41.192727 41.192727v412.509091a41.192727 41.192727 0 0 1-41.192727 41.192727H594.501818v-232.727272a82.501818 82.501818 0 1 0-165.003636 0z" fill="#2C9EF2" p-id="3020"></path></svg>