<?xml version="1.0" standalone="no"?><!DOCTYPE svg PUBLIC "-//W3C//DTD SVG 1.1//EN" "http://www.w3.org/Graphics/SVG/1.1/DTD/svg11.dtd"><svg t="1778431362790" class="icon" viewBox="0 0 1024 1024" version="1.1" xmlns="http://www.w3.org/2000/svg" p-id="7937" width="200" height="200"><path d="M525.6704 238.848L574.5664 179.2a49.664 49.664 0 0 1 38.6048-18.2784H773.12a90.8288 90.8288 0 0 1 90.7776 90.7264v182.272h51.2V251.5456A142.08 142.08 0 0 0 773.12 109.6192h-159.9488a100.6592 100.6592 0 0 0-78.2336 37.0688L500.0704 189.44l-34.8672-42.5984a100.8128 100.8128 0 0 0-78.2336-37.0688H226.8672a142.08 142.08 0 0 0-141.9264 141.7728v515.2256a142.1312 142.1312 0 0 0 141.9264 141.9264H773.12v-51.2h-247.4496zM136.1408 766.7712V251.5456a90.8288 90.8288 0 0 1 90.7264-90.7264h160.1024A49.7152 49.7152 0 0 1 425.5744 179.2l48.896 59.7504v618.5472H226.8672a90.8288 90.8288 0 0 1-90.7264-90.7264z" fill="#8a8a8a" p-id="7938"></path><path d="M205.056 269.9776h201.9328v51.2H205.056zM591.6672 269.9776H793.6v51.2h-201.9328zM205.056 413.7984h201.9328v51.2H205.056zM591.6672 413.7984h84.3264v51.2h-84.3264zM205.056 557.6192h201.9328v51.2H205.056zM205.056 701.3888h201.9328v51.2H205.056zM955.2896 645.4272a182.016 182.016 0 1 0-96.2048 160.4608l49.8688 68.6592 41.4208-30.1056-50.0224-68.864a181.5552 181.5552 0 0 0 54.9376-130.1504z m-312.7296 0A130.7648 130.7648 0 1 1 773.12 776.192a130.9184 130.9184 0 0 1-130.56-130.7648z" fill="#8a8a8a" p-id="7939"></path></svg>