<?xml version="1.0" standalone="no"?><!DOCTYPE svg PUBLIC "-//W3C//DTD SVG 1.1//EN" "http://www.w3.org/Graphics/SVG/1.1/DTD/svg11.dtd"><svg t="1778471055564" class="icon" viewBox="0 0 1024 1024" version="1.1" xmlns="http://www.w3.org/2000/svg" p-id="939" xmlns:xlink="http://www.w3.org/1999/xlink" width="200" height="200"><path d="M345.36576 260.0384c-13.056 3.15776-31.93856 15.1616-50.81984 32.28928-21.9712 19.93472-38.32704 46.25664-45.696 73.63328-9.82784 36.5696-7.0208 66.19264 9.54496 100.3776 2.87872 5.9648 7.37152 14.03776 9.96864 17.89824 6.528 9.82784 17.2672 20.42752 27.16416 26.81472 10.9504 7.08992 14.10944 10.10816 15.0912 14.53056 3.08992 13.68704 9.75744 26.60352 19.44448 37.83424 9.61664 11.0208 20.07552 18.10944 33.34272 22.53184 6.3872 2.176 20.35584 3.72096 25.47968 2.80832l3.50976-0.56192-4.91392-0.4224c-7.01952-0.70016-13.3376-2.66624-12.14336-3.8592 0.2112-0.2112 2.1056-0.91264 4.14208-1.40416 2.80704-0.77184 6.2464-0.91264 13.82784-0.56192 9.89696 0.4224 10.10816 0.49152 12.07296 2.3872 1.40416 1.40416 2.73792 4.352 4.4928 9.89696 4.77312 15.1616 12.70528 26.1824 22.32192 31.02592 2.80704 1.40416 7.51104 3.01824 10.38848 3.58016 6.6688 1.33376 63.59552 2.80704 105.99296 2.80704 29.34144 0 29.90208 0 34.9568-1.61408 9.05472-2.94784 15.79264-8.49408 22.25152-18.39104 3.50976-5.40416 5.05344-8.7744 6.2464-14.03904 0.84224-3.57888 1.05344-3.9296 3.65056-4.70272 1.47456-0.42112 4.6336-0.84224 6.94912-0.84224 11.3024-0.1408 29.69216-3.79008 38.04544-7.58144 10.9504-4.91264 22.95296-15.0208 29.34016-24.77824 6.17728-9.47584 10.81088-22.74304 11.93344-34.25408l0.49152-4.98432 4.00128-0.77184c12.21376-2.3168 20.28544-5.75616 28.98944-12.35456 7.23072-5.47456 18.25024-17.056 22.95424-24.21632 15.3728-23.30496 23.44448-51.38176 22.32064-77.84448-0.84224-18.67264-3.7888-33.0624-10.03776-48.99584-6.2464-15.79392-16.49536-34.5344-24.91776-45.6256-9.61664-12.56576-27.37664-27.93728-44.15232-38.11584-16.70656-10.17856-24.98944-13.2672-36.01024-13.2672-16.42496 0-30.2528 10.31936-34.8864 25.9712-1.47328 5.056-2.80704 13.89952-2.80704 18.53184 0 2.7392-0.49152 3.50976-4.5632 8.21248-11.37152 12.84608-14.31936 17.6896-18.32064 30.11328-5.12384 15.7952-7.08864 33.0624-6.3168 55.80416 0.70144 19.09376 2.94784 38.67776 5.33504 46.32832a609.5616 609.5616 0 0 1 2.45632 8.21248c0.98304 3.37024 3.36896 9.2672 5.26464 13.1264 7.93216 15.86432 16.63616 24.42752 36.78208 36.14976l6.94912 4.07168-0.4224 6.7392c-0.84096 12.7744-4.42112 19.3728-12.704 23.23328-6.3872 3.01824-11.0208 3.86048-20.70784 3.93088h-8.7744l-2.59712-12.9856c-5.12384-25.9712-11.86176-49.13536-20.42624-70.54464-4.4928-11.0208-12.7744-27.72736-17.1264-34.53568-3.86176-6.03648-13.056-15.86432-21.34016-22.88384-4.56192-3.9296-4.63232-4.56192-1.05216-12.14336 4.6336-10.17728 11.72224-18.03904 18.88256-20.98816 1.40288-0.63104 5.9648-1.68448 9.96736-2.45632 8.5632-1.54368 12.6336-3.58016 15.79264-7.93216 3.72096-5.05344 4.352-7.29984 4.4224-14.52928 0.0704-5.47584-0.20992-7.30112-1.47328-9.96736-2.1056-4.704-7.30112-9.89824-11.65312-11.86304-3.36896-1.54496-4.63232-1.68448-15.232-1.68448-11.30112 0-11.72224 0.06912-18.17984 2.3168-17.05728 5.9648-27.44576 13.68704-39.3088 29.41056-2.38592 3.22816-4.6336 5.82528-4.98304 5.82528-0.2816 0-2.7392-2.59712-5.33504-5.82528-10.38848-12.63488-17.1264-18.39104-28.0064-23.8656-12.28544-6.17728-22.112-8.49408-34.60736-8.14336-7.43936 0.2816-8.4928 0.49152-11.51104 2.176-6.6688 3.93088-9.33632 9.33632-9.33632 18.81216 0 7.08992 1.82528 12.49408 5.68576 16.77696 3.72096 4.1408 8.21248 6.176 16.49536 7.50976 13.408 2.176 19.7248 6.24768 25.48096 16.63616 2.80832 5.05472 5.33504 11.79264 5.33504 14.31936 0 1.12384-2.1056 3.93088-6.9504 8.9856-23.44448 24.63744-34.32448 44.08192-43.87072 78.2656-3.71968 13.61792-5.19424 20.63744-8.14208 39.65952-2.3872 15.584-3.29856 18.32064-5.96608 19.02336-1.05344 0.28032-8.21376 0.28032-16.00512 0.06912-17.6896-0.42112-20.14464-1.05216-25.76128-6.6688-2.73664-2.80704-4.42112-5.19296-5.40416-7.86048-1.8944-5.12384-2.66752-10.7392-1.68448-12.56448 0.42112-0.77312 4.4928-3.29984 9.05472-5.61536 11.23072-5.75616 18.25024-10.59968 25.69088-17.6192 25.41056-24.1472 36.64128-70.96576 28.2176-118.13632-4.00128-22.11072-11.58144-41.0624-22.88256-56.7168-2.80832-3.93088-4.14208-6.3872-3.93088-7.29984 0.20992-0.77312 0.56192-4.4224 0.77184-8.07296 0.84224-12.42368-2.176-20.98816-10.10816-28.77952-5.19424-5.12384-10.9504-8.4928-17.3376-10.10816-5.89568-1.54368-16.07424-1.33376-23.09376 0.352z m20.35584 8.2816c2.0352 0.4928 1.96608 0.5632-1.68448 1.68576-2.1056 0.63104-5.40416 1.19296-7.37024 1.12256h-3.58016l2.94784-1.19296c1.61536-0.63232 3.15904-1.40416 3.44064-1.75488 0.63104-0.56192 3.29856-0.49152 6.2464 0.1408z m-6.3872 30.9568c0.35072 0.35072-0.98304 3.7888-3.58016 8.91392-5.96608 11.65184-8.9856 21.40928-11.86304 37.97504-2.176 12.35456-2.94784 27.93728-1.7536 32.9216 1.19296 4.63232 4.63232 9.05472 8.2816 10.4576 3.43936 1.33504 5.68576 0.98304 9.47712-1.54368 3.15776-2.0352 4.63232-4.84352 7.22944-13.26592 6.7392-22.67264 7.65056-24.98944 9.33632-23.936 1.8944 1.19296 7.37024 22.53184 9.26464 36.5696 0.4224 3.08864 0.98304 11.4432 1.19424 18.60224 0.35072 11.58144 0.20992 13.82784-1.19424 20.35584-4.84352 23.44448-16.9856 40.36224-35.37664 49.06624-11.65312 5.61536-20.07552 7.37024-27.02464 5.68576-4.84352-1.12384-14.25024-6.88-19.23328-11.79264-10.31936-10.03776-16.35584-22.3232-21.05856-42.60864-1.19296-5.33376-1.47456-8.704-1.47456-21.408-0.0704-13.2672 0.1408-15.93472 1.54496-22.25152 4.98304-22.25152 15.72352-40.29184 36.5696-61.2096 16.56704-16.70656 35.02848-27.16544 39.6608-22.53184z m318.75072 2.45632c9.19552 4.4224 32.2176 25.41056 41.4848 37.83424 15.72352 20.98816 22.88256 42.46784 22.81216 68.65024 0 11.58144-1.54368 20.49664-5.05344 30.7456-2.3168 6.59712-6.7392 15.58272-9.89696 20.21504-6.3872 9.33504-17.76 18.32064-25.05984 19.8656-9.40544 1.9648-28.0768-3.86176-38.95808-12.14464-17.96864-13.75744-25.26976-30.3936-27.7248-63.3856-0.77312-10.4576-0.77312-9.33504 0.06912-20.70656 1.12256-16.14464 6.528-40.08064 9.12512-40.57216 2.80832-0.56192 6.3168 10.10816 10.8096 32.14848 1.40416 7.16032 3.22944 14.38976 4.14208 16.14464 2.0352 4.28288 5.19424 6.31808 9.82656 6.31808 4.98432 0 8.9152-2.80832 11.44192-8.28288 1.82528-3.86048 1.8944-4.4928 1.82528-15.232 0-8.4224-0.4224-13.40672-1.54496-19.8656-3.22816-17.89952-6.8096-30.81472-11.79264-42.46656-2.87744-6.8096-3.71968-10.88-2.38592-11.72224 1.54368-0.98304 5.68576 0 10.88 2.45632z m-102.8352 21.40928c8.42368 0.77184 13.408 2.1056 16.21504 4.352 1.40416 1.19296 1.47456 1.33376 0.2816 0.91264-3.79008-1.19296-12.56448-1.75488-16.63616-1.05344-4.70272 0.84224-6.03648 0.2112-4.70272-2.2464 0.63104-1.19296 0.2816-1.26336-4.6336-1.26336-3.36896 0-5.19424-0.2816-4.91264-0.70144 0.56064-0.91264 4.1408-0.91264 14.38976 0z m-144.38784 3.08864c-1.61408 1.40416-1.75488 1.82528-1.05344 2.73792 0.63232 0.70144 0.70272 1.19296 0.1408 1.54368-1.05344 0.63232-0.84224 2.3872 0.49152 3.71968 1.12256 1.12384 1.05216 1.19424-0.4224 1.40416-0.84096 0.1408-1.7536 0.70272-1.9648 1.26336-0.20992 0.5632-0.63104 0.77312-0.98176 0.5632-0.5632-0.352-1.05344 0.56064-2.4576 4.28032-0.84224 2.3168-1.7536-2.87744-1.26336-7.22944 0.56192-5.05472 4.5632-9.75744 8.5632-9.89696 0.49152-0.0704 0.0704 0.70144-1.05216 1.6128z m106.13248 8.4928c-1.54368 0.98304-3.22816 1.75488-3.71968 1.75488-1.75488 0-0.4224-1.61408 1.9648-2.4576 4.00128-1.472 4.7744-1.12128 1.75488 0.704z m-106.7648 8.21248c0.56192 0.352 0.49152 0.5632-0.1408 0.5632-0.84096 0-2.3168-2.88-2.176-4.42368 0-0.49152 0.352 0.0704 0.77312 1.26336 0.42112 1.12384 1.12256 2.3168 1.54368 2.5984z m241.46688 32.43008c-0.20992 5.40544-1.7536 8.4224-4.0704 7.72096-1.8944-0.56064-2.52672-1.54368-2.52672-3.86048s1.6128-4.4928 2.94784-3.9296c0.70144 0.20992 1.40416-0.4224 2.176-2.03648 0.63104-1.33376 1.26336-2.3872 1.33376-2.3872 0.1408 0 0.1408 2.0352 0.1408 4.4928zM513.9712 424.71296c13.96864 6.2464 31.58784 30.3232 41.6256 56.92672 9.19552 24.3584 15.65312 56.6464 17.2672 86.47936 0.56192 10.31808-0.1408 13.68832-3.58016 17.408l-2.3168 2.5984-12.21248 0.84096c-22.1824 1.54496-49.20576 1.05344-73.56416-1.19296-26.112-2.52672-27.65568-2.87744-29.97248-7.22944-2.3168-4.14208-1.47328-21.9712 2.2464-47.872 4.91392-34.04544 14.03904-59.80672 29.48096-83.1808 7.72224-11.65184 22.81344-25.9008 27.51616-25.9712 0.49152 0 2.0352 0.56064 3.50976 1.19296z m171.27296 109.152c2.3872 2.66624 3.72096 5.9648 3.72096 9.33504 0 2.66752-0.35072 3.65056-2.0352 5.26464-2.3872 2.4576-5.19552 3.22944-7.51104 2.176-1.96608-0.91264-3.43936-3.71968-2.80832-5.33504 0.4224-1.19296 1.96608-1.19296 5.96736 0.0704l1.68448 0.49152-0.4224-5.19424c-0.20992-2.87744-0.63104-5.89696-0.91136-6.8096-0.2112-0.84096-0.1408-1.54368 0.20992-1.54368s1.33376 0.70272 2.1056 1.54496z" p-id="940" fill="#D62839"></path><path d="M724.13184 443.73504c-0.49152 1.82528-2.2464 6.17728-3.9296 9.68704-3.29984 6.8096-6.7392 10.5984-13.76 15.1616-1.8944 1.19424-3.43808 2.3168-3.43808 2.3872 0 0.20992 3.08864-0.70272 5.26464-1.54496 2.66624-0.98176 9.96736-6.528 11.79264-8.98432 3.71968-4.7744 5.54496-9.40544 5.82528-14.46016 0.35072-5.75616-0.63104-6.94912-1.7536-2.2464zM559.10656 556.5376c0 2.87744-0.2816 5.26336-0.56192 5.26336-0.35072 0-1.19296-1.26336-1.8944-2.87744-1.12384-2.38592-1.40416-2.66752-1.82528-1.61408-0.2816 0.77184-0.5632 3.01824-0.5632 4.98304-0.06912 2.80832-0.34944 3.72096-1.12256 3.72096-0.56064 0-1.05216-0.2816-1.05216-0.63232 0-0.70144-2.1056-1.68448-2.5984-1.19296-0.20992 0.2112 0 1.47456 0.4928 2.87744 0.49152 1.40416 0.63104 2.7392 0.35072 3.01824-0.2816 0.2816-4.4928 0.77312-9.33632 1.19424l-8.91392 0.70144 6.6688 2.94784c3.64928 1.61536 6.73792 3.22944 6.87872 3.58016 0.06912 0.35072-1.96608 1.19296-4.5632 1.8944-12.00256 3.08992-12.00256 3.08992-2.94784 3.08992 4.70272 0.0704 10.6688-0.4224 13.96864-1.05344 5.12384-0.91264 5.89568-0.91264 7.37024 0 1.47456 0.98304 1.68448 0.91264 2.66752-0.1408 2.66752-2.87744 3.29856-8.8448 1.8944-17.47712-0.91136-5.68576-3.36896-13.54752-4.2112-13.54752-0.42112 0-0.70144 2.38592-0.70144 5.26464zM643.69024 515.19232c-1.40416 1.40416-1.33376 5.12512 0.0704 6.6688 1.54368 1.75488 0.77184 4.352-1.54496 5.47584-2.94784 1.33248-11.23072 2.87744-15.44192 2.87744-2.10688 0-3.79136 0.2816-3.79136 0.63104 0 1.19424 10.31936 3.08864 13.89824 2.528 2.73792-0.4224 3.93088-1.12384 6.88-4.07168 5.54496-5.54496 6.59712-11.79264 2.38592-14.38976-1.05344-0.63232-1.54368-0.63232-2.4576 0.2816z" p-id="941" fill="#D62839"></path><path d="M640.11008 521.86112c-0.70144 1.19296 1.61408 3.22944 2.66752 2.176 0.56192-0.56192 0.56192-1.05216-0.1408-1.8944-1.05216-1.26464-1.82528-1.33376-2.52672-0.2816zM453.46432 636.9088c-12.7744 1.05344-21.12896 4.5632-27.65696 11.65184-7.08864 7.79264-9.19424 15.3728-9.19424 33.83424 0 22.88256 2.94784 39.0976 9.47584 52.1536 8.2816 16.35584 21.26848 25.41056 40.08064 27.93728 8.35328 1.12384 49.7664 2.87872 67.6672 2.87872 27.44576 0 39.65952-2.176 49.9776-8.9152 8.6336-5.61536 14.46016-13.82784 18.39104-25.8304 5.12384-15.4432 7.37024-46.1184 4.56192-60.99968-0.98176-5.19424-5.12384-13.1968-9.12512-17.5488-4.84352-5.33376-12.70528-9.19424-21.26848-10.5984-3.43936-0.56192-13.68832-1.33376-22.81344-1.75488-9.12512-0.35072-22.88256-1.05344-30.6048-1.40416-18.31936-0.91264-54.4-2.1056-59.31264-1.9648-2.10688 0-6.6688 0.28032-10.17856 0.56064z m-6.6688 9.82784c-2.1056 0.77184-4.2816 1.40288-4.77312 1.40288-0.49152 0-1.54368 0.63232-2.38592 1.40416-1.82528 1.68448-1.54496 1.82528 6.17728 3.08864l5.54496 0.98304-4.2112 0.0704c-4.6336 0.0704-9.19552 1.12256-9.89824 2.2464-0.20992 0.35072 0.4224 1.47328 1.40416 2.38592 2.1056 1.96608 2.3168 2.80832 0.63232 2.1056a57.27616 57.27616 0 0 0-4.6336-1.12256c-3.08864-0.56192-3.71968-0.4224-6.528 1.19296-1.7536 1.05344-3.36896 1.61408-3.64928 1.40416-0.49152-0.56192 2.176-5.89696 4.2112-8.49408 1.19296-1.54368 8.7744-4.91264 15.65312-6.94912 5.12384-1.47328 7.01952-1.26336 2.4576 0.2816z m-13.68704 20.35584c0.20992 0.42112-0.0704 0.91264-0.70272 1.12256-1.33376 0.5632-2.1056 0-1.40288-1.05216 0.56064-0.98304 1.54368-0.98304 2.1056-0.0704z m108.44928 11.1616l26.3232 0.41984 0.63104 4.9152c0.70272 5.26336-0.35072 24.07552-1.7536 29.9712-0.91392 4.2112-3.16032 7.44064-6.24896 9.2672-2.176 1.26208-3.9296 1.472-14.03776 1.7536-11.93344 0.2112-58.8928-1.54368-71.10656-2.73792-8.4224-0.84224-12.7744-2.59712-15.3728-6.176-2.1056-2.94912-2.94784-6.8096-4.4224-20.35712-1.40416-12.7744-1.40416-15.232 0.35072-16.9856 1.61536-1.61536-2.1056-1.54496 85.63712-0.07168z" p-id="942" fill="#D62839"></path><path d="M540.1536 684.5696l-2.4576 0.4928 4.00256 1.19296c2.176 0.63232 4.91264 1.19296 6.03648 1.19296 2.2464 0 3.50976 0.98304 2.2464 1.75488-0.352 0.2112-2.0352 0.70272-3.65056 0.98304-3.22944 0.63232-2.87744 0.91264 2.1056 2.176 3.15904 0.77184 3.79008 2.176 1.75488 3.50976-0.98304 0.63232-0.77184 0.63232 1.19296 0.2816 2.7392-0.4928 2.66752-0.4928 4.4224-0.352 1.19424 0.0704 1.19424 0.2112-0.20992 2.5984-1.61536 2.59584-1.47456 3.9296 0.2816 2.45632 0.84096-0.70272 1.05216-0.49152 1.26208 1.12256l0.2112 1.9648 1.26336-2.3168c0.70144-1.26208 1.82528-2.87744 2.59712-3.648 1.40416-1.40544 2.59712-9.2672 1.82528-11.79392-0.2816-0.84224-1.33376-1.54368-2.66752-1.82528-2.73792-0.56064-16.98688-0.42112-20.21632 0.2112z" p-id="943" fill="#D62839"></path></svg>